<svg xmlns="http://www.w3.org/2000/svg" width="1280" height="560" viewBox="0 0 1280 560">
<rect width="100%" height="100%" fill="#F7F9FC"/>
<text x="640.0" y="44" text-anchor="middle" font-family="Arial, Helvetica, sans-serif" font-size="26" font-weight="700" fill="#172033">Mitigation Evaluation: Overall Awareness Metrics</text>
<text x="640.0" y="72" text-anchor="middle" font-family="Arial, Helvetica, sans-serif" font-size="14" font-weight="400" fill="#4B5563">Parsed from VoxSafeBench official evaluator logs; smoke n is small</text>
<line x1="300.0" y1="80" x2="300.0" y2="505" stroke="#E0E6EF" stroke-width="1"/>
<text x="300.0" y="530" text-anchor="middle" font-family="Arial, Helvetica, sans-serif" font-size="12" font-weight="400" fill="#667085">0%</text>
<line x1="490.0" y1="80" x2="490.0" y2="505" stroke="#E0E6EF" stroke-width="1"/>
<text x="490.0" y="530" text-anchor="middle" font-family="Arial, Helvetica, sans-serif" font-size="12" font-weight="400" fill="#667085">25%</text>
<line x1="680.0" y1="80" x2="680.0" y2="505" stroke="#E0E6EF" stroke-width="1"/>
<text x="680.0" y="530" text-anchor="middle" font-family="Arial, Helvetica, sans-serif" font-size="12" font-weight="400" fill="#667085">50%</text>
<line x1="870.0" y1="80" x2="870.0" y2="505" stroke="#E0E6EF" stroke-width="1"/>
<text x="870.0" y="530" text-anchor="middle" font-family="Arial, Helvetica, sans-serif" font-size="12" font-weight="400" fill="#667085">75%</text>
<line x1="1060.0" y1="80" x2="1060.0" y2="505" stroke="#E0E6EF" stroke-width="1"/>
<text x="1060.0" y="530" text-anchor="middle" font-family="Arial, Helvetica, sans-serif" font-size="12" font-weight="400" fill="#667085">100%</text>
<text x="24" y="115" text-anchor="start" font-family="Arial, Helvetica, sans-serif" font-size="14" font-weight="700" fill="#172033">E2E Baseline</text>
<text x="24" y="137" text-anchor="start" font-family="Arial, Helvetica, sans-serif" font-size="11" font-weight="400" fill="#667085">Safety-tier2/Child_voice</text>
<rect x="300" y="95" width="760" height="18" rx="4" fill="#E7ECF3"/>
<rect x="300" y="95" width="506.7" height="18" rx="4" fill="#2A9D8F"/>
<text x="1080" y="109" text-anchor="start" font-family="Arial, Helvetica, sans-serif" font-size="12" font-weight="700" fill="#1F7A70">Aware 66.7%</text>
<rect x="300" y="120" width="253.3" height="12" rx="3" fill="#E76F51"/>
<rect x="300" y="137" width="253.3" height="12" rx="3" fill="#7B2CBF"/>
<text x="1080" y="131" text-anchor="start" font-family="Arial, Helvetica, sans-serif" font-size="11" font-weight="400" fill="#A6422B">DAR 33.3%</text>
<text x="1080" y="148" text-anchor="start" font-family="Arial, Helvetica, sans-serif" font-size="11" font-weight="400" fill="#5B21B6">RtA 33.3%</text>
<text x="24" y="187" text-anchor="start" font-family="Arial, Helvetica, sans-serif" font-size="14" font-weight="700" fill="#172033">ASR Transcript</text>
<text x="24" y="209" text-anchor="start" font-family="Arial, Helvetica, sans-serif" font-size="11" font-weight="400" fill="#667085">Safety-tier2/Child_voice</text>
<rect x="300" y="167" width="760" height="18" rx="4" fill="#E7ECF3"/>
<rect x="300" y="167" width="0.0" height="18" rx="4" fill="#2A9D8F"/>
<text x="1080" y="181" text-anchor="start" font-family="Arial, Helvetica, sans-serif" font-size="12" font-weight="700" fill="#1F7A70">Aware 0.0%</text>
<rect x="300" y="192" width="760.0" height="12" rx="3" fill="#E76F51"/>
<rect x="300" y="209" width="0.0" height="12" rx="3" fill="#7B2CBF"/>
<text x="1080" y="203" text-anchor="start" font-family="Arial, Helvetica, sans-serif" font-size="11" font-weight="400" fill="#A6422B">DAR 100.0%</text>
<text x="1080" y="220" text-anchor="start" font-family="Arial, Helvetica, sans-serif" font-size="11" font-weight="400" fill="#5B21B6">RtA 0.0%</text>
<text x="24" y="259" text-anchor="start" font-family="Arial, Helvetica, sans-serif" font-size="14" font-weight="700" fill="#172033">Acoustic Caption</text>
<text x="24" y="281" text-anchor="start" font-family="Arial, Helvetica, sans-serif" font-size="11" font-weight="400" fill="#667085">Safety-tier2/Child_voice</text>
<rect x="300" y="239" width="760" height="18" rx="4" fill="#E7ECF3"/>
<rect x="300" y="239" width="760.0" height="18" rx="4" fill="#2A9D8F"/>
<text x="1080" y="253" text-anchor="start" font-family="Arial, Helvetica, sans-serif" font-size="12" font-weight="700" fill="#1F7A70">Aware 100.0%</text>
<rect x="300" y="264" width="0.0" height="12" rx="3" fill="#E76F51"/>
<rect x="300" y="281" width="0.0" height="12" rx="3" fill="#7B2CBF"/>
<text x="1080" y="275" text-anchor="start" font-family="Arial, Helvetica, sans-serif" font-size="11" font-weight="400" fill="#A6422B">DAR 0.0%</text>
<text x="1080" y="292" text-anchor="start" font-family="Arial, Helvetica, sans-serif" font-size="11" font-weight="400" fill="#5B21B6">RtA 0.0%</text>
<text x="24" y="331" text-anchor="start" font-family="Arial, Helvetica, sans-serif" font-size="14" font-weight="700" fill="#172033">Structured Cue + Policy</text>
<text x="24" y="353" text-anchor="start" font-family="Arial, Helvetica, sans-serif" font-size="11" font-weight="400" fill="#667085">Safety-tier2/Child_voice</text>
<rect x="300" y="311" width="760" height="18" rx="4" fill="#E7ECF3"/>
<rect x="300" y="311" width="506.7" height="18" rx="4" fill="#2A9D8F"/>
<text x="1080" y="325" text-anchor="start" font-family="Arial, Helvetica, sans-serif" font-size="12" font-weight="700" fill="#1F7A70">Aware 66.7%</text>
<rect x="300" y="336" width="253.3" height="12" rx="3" fill="#E76F51"/>
<rect x="300" y="353" width="253.3" height="12" rx="3" fill="#7B2CBF"/>
<text x="1080" y="347" text-anchor="start" font-family="Arial, Helvetica, sans-serif" font-size="11" font-weight="400" fill="#A6422B">DAR 33.3%</text>
<text x="1080" y="364" text-anchor="start" font-family="Arial, Helvetica, sans-serif" font-size="11" font-weight="400" fill="#5B21B6">RtA 33.3%</text>
<text x="24" y="403" text-anchor="start" font-family="Arial, Helvetica, sans-serif" font-size="14" font-weight="700" fill="#172033">Verifier Revision</text>
<text x="24" y="425" text-anchor="start" font-family="Arial, Helvetica, sans-serif" font-size="11" font-weight="400" fill="#667085">Safety-tier2/Child_voice</text>
<rect x="300" y="383" width="760" height="18" rx="4" fill="#E7ECF3"/>
<rect x="300" y="383" width="760.0" height="18" rx="4" fill="#2A9D8F"/>
<text x="1080" y="397" text-anchor="start" font-family="Arial, Helvetica, sans-serif" font-size="12" font-weight="700" fill="#1F7A70">Aware 100.0%</text>
<rect x="300" y="408" width="0.0" height="12" rx="3" fill="#E76F51"/>
<rect x="300" y="425" width="506.7" height="12" rx="3" fill="#7B2CBF"/>
<text x="1080" y="419" text-anchor="start" font-family="Arial, Helvetica, sans-serif" font-size="11" font-weight="400" fill="#A6422B">DAR 0.0%</text>
<text x="1080" y="436" text-anchor="start" font-family="Arial, Helvetica, sans-serif" font-size="11" font-weight="400" fill="#5B21B6">RtA 66.7%</text>
<text x="24" y="530" text-anchor="start" font-family="Arial, Helvetica, sans-serif" font-size="12" font-weight="400" fill="#667085">Green = Aware%; orange = DAR%; purple = RtA%.</text>
</svg>