<svg xmlns="http://www.w3.org/2000/svg" width="1600" height="980" viewBox="0 0 1600 980">
<rect width="1600" height="980" fill="#F7F9FC"/>
<text x="800.0" y="62" text-anchor="middle" font-family="Arial, Helvetica, sans-serif" font-size="30" font-weight="700" fill="#172033">VoxSafeBench Inference-Time Mitigation Workflows</text>
<text x="800.0" y="98" text-anchor="middle" font-family="Arial, Helvetica, sans-serif" font-size="16" font-weight="400" fill="#4B5563">Comparing direct audio answering, transcript-only answering, acoustic cue extraction, policy binding, and verifier revision</text>
<defs><marker id="arrow" markerWidth="10" markerHeight="10" refX="9" refY="3" orient="auto"><path d="M0,0 L0,6 L9,3 z" fill="#253247"/></marker></defs>
<line x1="70" y1="225" x2="1530" y2="225" stroke="#D7DEE8" stroke-width="1"/>
<circle cx="55" cy="225" r="24" fill="#172033"/>
<text x="55" y="232" text-anchor="middle" font-family="Arial, Helvetica, sans-serif" font-size="18" font-weight="700" fill="#FFFFFF">0</text>
<text x="145" y="218" text-anchor="start" font-family="Arial, Helvetica, sans-serif" font-size="18" font-weight="700" fill="#172033">Baseline</text>
<rect x="37.5" y="190" width="235" height="70" rx="8" fill="#FFFFFF" stroke="#253247" stroke-width="1.5"/>
<text x="155" y="221" text-anchor="middle" font-family="Arial, Helvetica, sans-serif" font-size="13" font-weight="400" fill="#172033">Audio</text>
<line x1="284.5" y1="225" x2="710" y2="225" stroke="#253247" stroke-width="1.8" marker-end="url(#arrow)"/>
<rect x="717.5" y="190" width="235" height="70" rx="8" fill="#E9C46A" stroke="#253247" stroke-width="1.5"/>
<text x="835" y="221" text-anchor="middle" font-family="Arial, Helvetica, sans-serif" font-size="13" font-weight="400" fill="#172033">+ Original task prompt</text>
<line x1="964.5" y1="225" x2="1050" y2="225" stroke="#253247" stroke-width="1.8" marker-end="url(#arrow)"/>
<rect x="1057.5" y="190" width="235" height="70" rx="8" fill="#2A9D8F" stroke="#253247" stroke-width="1.5"/>
<text x="1175" y="221" text-anchor="middle" font-family="Arial, Helvetica, sans-serif" font-size="13" font-weight="400" fill="#172033">Speech model</text>
<line x1="1304.5" y1="225" x2="1325" y2="225" stroke="#253247" stroke-width="1.8" marker-end="url(#arrow)"/>
<rect x="1347.5" y="190" width="205" height="70" rx="8" fill="#FFFFFF" stroke="#253247" stroke-width="1.5"/>
<text x="1450" y="221" text-anchor="middle" font-family="Arial, Helvetica, sans-serif" font-size="13" font-weight="400" fill="#172033">Final response</text>
<line x1="70" y1="370" x2="1530" y2="370" stroke="#D7DEE8" stroke-width="1"/>
<circle cx="55" cy="370" r="24" fill="#172033"/>
<text x="55" y="377" text-anchor="middle" font-family="Arial, Helvetica, sans-serif" font-size="18" font-weight="700" fill="#FFFFFF">1</text>
<text x="145" y="363" text-anchor="start" font-family="Arial, Helvetica, sans-serif" font-size="18" font-weight="700" fill="#172033">ASR Transcript</text>
<rect x="37.5" y="335" width="235" height="70" rx="8" fill="#FFFFFF" stroke="#253247" stroke-width="1.5"/>
<text x="155" y="366" text-anchor="middle" font-family="Arial, Helvetica, sans-serif" font-size="13" font-weight="400" fill="#172033">Audio</text>
<line x1="284.5" y1="370" x2="710" y2="370" stroke="#253247" stroke-width="1.8" marker-end="url(#arrow)"/>
<rect x="717.5" y="335" width="235" height="70" rx="8" fill="#E9C46A" stroke="#253247" stroke-width="1.5"/>
<text x="835" y="366" text-anchor="middle" font-family="Arial, Helvetica, sans-serif" font-size="13" font-weight="400" fill="#172033">ASR transcript</text>
<line x1="964.5" y1="370" x2="1050" y2="370" stroke="#253247" stroke-width="1.8" marker-end="url(#arrow)"/>
<rect x="1057.5" y="335" width="235" height="70" rx="8" fill="#2A9D8F" stroke="#253247" stroke-width="1.5"/>
<text x="1175" y="366" text-anchor="middle" font-family="Arial, Helvetica, sans-serif" font-size="13" font-weight="400" fill="#172033">Text answer model</text>
<line x1="1304.5" y1="370" x2="1325" y2="370" stroke="#253247" stroke-width="1.8" marker-end="url(#arrow)"/>
<rect x="1347.5" y="335" width="205" height="70" rx="8" fill="#FFFFFF" stroke="#253247" stroke-width="1.5"/>
<text x="1450" y="366" text-anchor="middle" font-family="Arial, Helvetica, sans-serif" font-size="13" font-weight="400" fill="#172033">Final response</text>
<text x="495" y="427" text-anchor="middle" font-family="Arial, Helvetica, sans-serif" font-size="13" font-weight="400" fill="#8A4B00">removes who/how/where acoustic cues by design</text>
<line x1="70" y1="515" x2="1530" y2="515" stroke="#D7DEE8" stroke-width="1"/>
<circle cx="55" cy="515" r="24" fill="#172033"/>
<text x="55" y="522" text-anchor="middle" font-family="Arial, Helvetica, sans-serif" font-size="18" font-weight="700" fill="#FFFFFF">2</text>
<text x="145" y="508" text-anchor="start" font-family="Arial, Helvetica, sans-serif" font-size="18" font-weight="700" fill="#172033">Acoustic Caption</text>
<rect x="37.5" y="480" width="235" height="70" rx="8" fill="#FFFFFF" stroke="#253247" stroke-width="1.5"/>
<text x="155" y="511" text-anchor="middle" font-family="Arial, Helvetica, sans-serif" font-size="13" font-weight="400" fill="#172033">Audio</text>
<line x1="284.5" y1="515" x2="710" y2="515" stroke="#253247" stroke-width="1.8" marker-end="url(#arrow)"/>
<rect x="717.5" y="480" width="235" height="70" rx="8" fill="#E9C46A" stroke="#253247" stroke-width="1.5"/>
<text x="835" y="511" text-anchor="middle" font-family="Arial, Helvetica, sans-serif" font-size="13" font-weight="400" fill="#172033">Transcript + free-form</text>
<text x="835" y="529" text-anchor="middle" font-family="Arial, Helvetica, sans-serif" font-size="13" font-weight="400" fill="#172033">acoustic caption</text>
<line x1="964.5" y1="515" x2="1050" y2="515" stroke="#253247" stroke-width="1.8" marker-end="url(#arrow)"/>
<rect x="1057.5" y="480" width="235" height="70" rx="8" fill="#2A9D8F" stroke="#253247" stroke-width="1.5"/>
<text x="1175" y="511" text-anchor="middle" font-family="Arial, Helvetica, sans-serif" font-size="13" font-weight="400" fill="#172033">Answer model uses cues</text>
<line x1="1304.5" y1="515" x2="1325" y2="515" stroke="#253247" stroke-width="1.8" marker-end="url(#arrow)"/>
<rect x="1347.5" y="480" width="205" height="70" rx="8" fill="#FFFFFF" stroke="#253247" stroke-width="1.5"/>
<text x="1450" y="511" text-anchor="middle" font-family="Arial, Helvetica, sans-serif" font-size="13" font-weight="400" fill="#172033">Final response</text>
<line x1="70" y1="660" x2="1530" y2="660" stroke="#D7DEE8" stroke-width="1"/>
<circle cx="55" cy="660" r="24" fill="#172033"/>
<text x="55" y="667" text-anchor="middle" font-family="Arial, Helvetica, sans-serif" font-size="18" font-weight="700" fill="#FFFFFF">3</text>
<text x="145" y="653" text-anchor="start" font-family="Arial, Helvetica, sans-serif" font-size="18" font-weight="700" fill="#172033">Structured Cue + Policy</text>
<rect x="37.5" y="625" width="235" height="70" rx="8" fill="#FFFFFF" stroke="#253247" stroke-width="1.5"/>
<text x="155" y="656" text-anchor="middle" font-family="Arial, Helvetica, sans-serif" font-size="13" font-weight="400" fill="#172033">Audio</text>
<line x1="284.5" y1="660" x2="710" y2="660" stroke="#253247" stroke-width="1.8" marker-end="url(#arrow)"/>
<rect x="717.5" y="625" width="235" height="70" rx="8" fill="#E9C46A" stroke="#253247" stroke-width="1.5"/>
<text x="835" y="656" text-anchor="middle" font-family="Arial, Helvetica, sans-serif" font-size="13" font-weight="400" fill="#172033">Structured cue JSON</text>
<line x1="964.5" y1="660" x2="1050" y2="660" stroke="#253247" stroke-width="1.8" marker-end="url(#arrow)"/>
<rect x="1057.5" y="625" width="235" height="70" rx="8" fill="#FDE7DF" stroke="#253247" stroke-width="1.5"/>
<text x="1175" y="656" text-anchor="middle" font-family="Arial, Helvetica, sans-serif" font-size="13" font-weight="400" fill="#172033">Policy-bound answer prompt</text>
<line x1="1304.5" y1="660" x2="1325" y2="660" stroke="#253247" stroke-width="1.8" marker-end="url(#arrow)"/>
<rect x="1347.5" y="625" width="205" height="70" rx="8" fill="#FFFFFF" stroke="#253247" stroke-width="1.5"/>
<text x="1450" y="656" text-anchor="middle" font-family="Arial, Helvetica, sans-serif" font-size="13" font-weight="400" fill="#172033">Final response</text>
<text x="835" y="717" text-anchor="middle" font-family="Arial, Helvetica, sans-serif" font-size="13" font-weight="400" fill="#9A3412">cue fields bind speech evidence to response policy</text>
<line x1="70" y1="805" x2="1530" y2="805" stroke="#D7DEE8" stroke-width="1"/>
<circle cx="55" cy="805" r="24" fill="#172033"/>
<text x="55" y="812" text-anchor="middle" font-family="Arial, Helvetica, sans-serif" font-size="18" font-weight="700" fill="#FFFFFF">4</text>
<text x="145" y="798" text-anchor="start" font-family="Arial, Helvetica, sans-serif" font-size="18" font-weight="700" fill="#172033">Verifier Revision</text>
<rect x="37.5" y="770" width="235" height="70" rx="8" fill="#FFFFFF" stroke="#253247" stroke-width="1.5"/>
<text x="155" y="801" text-anchor="middle" font-family="Arial, Helvetica, sans-serif" font-size="13" font-weight="400" fill="#172033">Audio</text>
<line x1="284.5" y1="805" x2="710" y2="805" stroke="#253247" stroke-width="1.8" marker-end="url(#arrow)"/>
<rect x="717.5" y="770" width="235" height="70" rx="8" fill="#E9C46A" stroke="#253247" stroke-width="1.5"/>
<text x="835" y="801" text-anchor="middle" font-family="Arial, Helvetica, sans-serif" font-size="13" font-weight="400" fill="#172033">Structured cues + draft</text>
<line x1="964.5" y1="805" x2="1050" y2="805" stroke="#253247" stroke-width="1.8" marker-end="url(#arrow)"/>
<rect x="1057.5" y="770" width="235" height="70" rx="8" fill="#EFE4FF" stroke="#253247" stroke-width="1.5"/>
<text x="1175" y="801" text-anchor="middle" font-family="Arial, Helvetica, sans-serif" font-size="13" font-weight="400" fill="#172033">Verifier judgment</text>
<line x1="1304.5" y1="805" x2="1325" y2="805" stroke="#253247" stroke-width="1.8" marker-end="url(#arrow)"/>
<rect x="1347.5" y="770" width="205" height="70" rx="8" fill="#FFFFFF" stroke="#253247" stroke-width="1.5"/>
<text x="1450" y="801" text-anchor="middle" font-family="Arial, Helvetica, sans-serif" font-size="13" font-weight="400" fill="#172033">Revised/final response</text>
<text x="835" y="862" text-anchor="middle" font-family="Arial, Helvetica, sans-serif" font-size="13" font-weight="400" fill="#5B21B6">post-hoc judge checks ignored cue, unsafe compliance, over-refusal</text>
<text x="80" y="930" text-anchor="start" font-family="Arial, Helvetica, sans-serif" font-size="12" font-weight="400" fill="#667085">Figure: implementation schematic generated from scripts/render_mitigation_report.py</text>
</svg>